<svg xmlns="http://www.w3.org/2000/svg" xmlns:xlink="http://www.w3.org/1999/xlink" width="500" zoomAndPan="magnify" viewBox="0 0 375 374.999991" height="500" preserveAspectRatio="xMidYMid meet" version="1.0"><defs><g/></defs><path fill="#ff914d" d="M 6.8125 239.253906 C 25.785156 147.160156 110.121094 89.835938 201.828125 106.324219 C 111.789062 93.097656 30.558594 150.542969 14.957031 240.796875 Z M 6.8125 239.253906 " fill-opacity="1" fill-rule="nonzero"/><path fill="#ff914d" d="M 0.570312 207.089844 C 35.246094 119.691406 128.257812 77.882812 215.707031 110.046875 C 129.332031 81.382812 39.363281 123.851562 8.328125 210.023438 Z M 0.570312 207.089844 " fill-opacity="1" fill-rule="nonzero"/><path fill="#ff914d" d="M 0.0117188 174.328125 C 49.335938 94.28125 148.195312 69.257812 228.730469 116.117188 C 148.648438 72.890625 52.667969 99.09375 7.140625 178.566406 Z M 0.0117188 174.328125 " fill-opacity="1" fill-rule="nonzero"/><path fill="#ff914d" d="M 5.148438 141.972656 C 67.625 71.703125 169.324219 64.226562 240.5 124.359375 C 169.140625 67.882812 70.070312 77.019531 11.433594 147.382812 Z M 5.148438 141.972656 " fill-opacity="1" fill-rule="nonzero"/><path fill="#ff914d" d="M 15.828125 110.996094 C 89.558594 52.644531 191.011719 62.941406 250.664062 134.519531 C 190.191406 66.511719 91.042969 58.304688 21.078125 117.414062 Z M 15.828125 110.996094 " fill-opacity="1" fill-rule="nonzero"/><path fill="#ff914d" d="M 31.722656 82.34375 C 114.464844 37.683594 212.589844 65.441406 258.90625 146.292969 C 211.164062 68.816406 114.941406 43.515625 35.777344 89.578125 Z M 31.722656 82.34375 " fill-opacity="1" fill-rule="nonzero"/><path fill="#ff914d" d="M 52.351562 56.890625 C 141.59375 27.277344 233.40625 71.648438 264.976562 159.316406 C 231.414062 74.726562 141.050781 33.101562 55.089844 64.71875 Z M 52.351562 56.890625 " fill-opacity="1" fill-rule="nonzero"/><path fill="#ff914d" d="M 77.085938 35.40625 C 170.113281 21.738281 252.828125 81.378906 268.695312 173.195312 C 250.332031 84.0625 168.570312 27.378906 78.421875 43.589844 Z M 77.085938 35.40625 " fill-opacity="1" fill-rule="nonzero"/><path fill="#ff914d" d="M 105.175781 18.539062 C 199.164062 21.234375 270.265625 94.335938 269.949219 187.511719 C 267.34375 96.542969 196.664062 26.523438 105.074219 26.832031 Z M 105.175781 18.539062 " fill-opacity="1" fill-rule="nonzero"/><path fill="#ff914d" d="M 135.769531 6.8125 C 227.863281 25.785156 285.1875 110.121094 268.695312 201.828125 C 281.925781 111.789062 224.480469 30.558594 134.226562 14.957031 Z M 135.769531 6.8125 " fill-opacity="1" fill-rule="nonzero"/><path fill="#ff914d" d="M 167.933594 0.570312 C 255.332031 35.246094 297.140625 128.257812 264.976562 215.707031 C 293.640625 129.332031 251.171875 39.363281 165 8.328125 Z M 167.933594 0.570312 " fill-opacity="1" fill-rule="nonzero"/><path fill="#ff914d" d="M 200.695312 0.0117188 C 280.742188 49.335938 305.765625 148.195312 258.90625 228.730469 C 302.132812 148.648438 275.929688 52.667969 196.457031 7.140625 Z M 200.695312 0.0117188 " fill-opacity="1" fill-rule="nonzero"/><path fill="#ff914d" d="M 233.050781 5.148438 C 303.320312 67.625 310.796875 169.324219 250.664062 240.5 C 307.140625 169.140625 298.003906 70.070312 227.640625 11.433594 Z M 233.050781 5.148438 " fill-opacity="1" fill-rule="nonzero"/><path fill="#ff914d" d="M 264.027344 15.828125 C 322.378906 89.558594 312.082031 191.011719 240.5 250.664062 C 308.511719 190.191406 316.71875 91.042969 257.605469 21.078125 Z M 264.027344 15.828125 " fill-opacity="1" fill-rule="nonzero"/><path fill="#ff914d" d="M 292.675781 31.722656 C 337.339844 114.464844 309.582031 212.589844 228.730469 258.90625 C 306.207031 211.164062 331.507812 114.941406 285.445312 35.777344 Z M 292.675781 31.722656 " fill-opacity="1" fill-rule="nonzero"/><path fill="#ff914d" d="M 318.132812 52.351562 C 347.746094 141.59375 303.371094 233.40625 215.707031 264.976562 C 300.296875 231.414062 341.921875 141.050781 310.304688 55.089844 Z M 318.132812 52.351562 " fill-opacity="1" fill-rule="nonzero"/><path fill="#ff914d" d="M 339.617188 77.085938 C 353.285156 170.113281 293.644531 252.828125 201.828125 268.695312 C 290.960938 250.332031 347.640625 168.570312 331.433594 78.421875 Z M 339.617188 77.085938 " fill-opacity="1" fill-rule="nonzero"/><path fill="#ff914d" d="M 356.480469 105.175781 C 353.789062 199.164062 280.6875 270.265625 187.511719 269.949219 C 278.480469 267.34375 348.5 196.664062 348.191406 105.074219 Z M 356.480469 105.175781 " fill-opacity="1" fill-rule="nonzero"/><path fill="#ff914d" d="M 368.210938 135.769531 C 349.238281 227.863281 264.902344 285.1875 173.195312 268.695312 C 263.234375 281.925781 344.464844 224.480469 360.0625 134.226562 Z M 368.210938 135.769531 " fill-opacity="1" fill-rule="nonzero"/><path fill="#ff914d" d="M 374.453125 167.933594 C 339.777344 255.332031 246.765625 297.140625 159.316406 264.976562 C 245.6875 293.640625 335.660156 251.171875 366.695312 165 Z M 374.453125 167.933594 " fill-opacity="1" fill-rule="nonzero"/><path fill="#ff914d" d="M 375.011719 200.695312 C 325.683594 280.742188 226.828125 305.765625 146.292969 258.90625 C 226.375 302.132812 322.355469 275.929688 367.882812 196.457031 Z M 375.011719 200.695312 " fill-opacity="1" fill-rule="nonzero"/><path fill="#ff914d" d="M 369.875 233.050781 C 307.398438 303.320312 205.695312 310.796875 134.519531 250.664062 C 205.882812 307.140625 304.953125 298.003906 363.589844 227.640625 Z M 369.875 233.050781 " fill-opacity="1" fill-rule="nonzero"/><path fill="#ff914d" d="M 359.195312 264.027344 C 285.464844 322.378906 184.011719 312.082031 124.359375 240.5 C 184.828125 308.511719 283.980469 316.71875 353.945312 257.605469 Z M 359.195312 264.027344 " fill-opacity="1" fill-rule="nonzero"/><path fill="#ff914d" d="M 343.300781 292.675781 C 260.558594 337.339844 162.433594 309.582031 116.117188 228.730469 C 163.859375 306.207031 260.078125 331.507812 339.246094 285.445312 Z M 343.300781 292.675781 " fill-opacity="1" fill-rule="nonzero"/><path fill="#ff914d" d="M 322.671875 318.132812 C 233.429688 347.746094 141.617188 303.371094 110.046875 215.707031 C 143.605469 300.296875 233.972656 341.921875 319.933594 310.304688 Z M 322.671875 318.132812 " fill-opacity="1" fill-rule="nonzero"/><path fill="#ff914d" d="M 297.9375 339.617188 C 204.910156 353.285156 122.195312 293.644531 106.324219 201.828125 C 124.6875 290.960938 206.453125 347.640625 296.601562 331.433594 Z M 297.9375 339.617188 " fill-opacity="1" fill-rule="nonzero"/><path fill="#ff914d" d="M 269.84375 356.480469 C 175.859375 353.789062 104.757812 280.6875 105.074219 187.511719 C 107.679688 278.480469 178.359375 348.5 269.949219 348.191406 Z M 269.84375 356.480469 " fill-opacity="1" fill-rule="nonzero"/><path fill="#ff914d" d="M 239.253906 368.210938 C 147.160156 349.238281 89.835938 264.902344 106.324219 173.195312 C 93.097656 263.234375 150.542969 344.464844 240.796875 360.0625 Z M 239.253906 368.210938 " fill-opacity="1" fill-rule="nonzero"/><path fill="#ff914d" d="M 207.089844 374.453125 C 119.691406 339.777344 77.878906 246.765625 110.046875 159.316406 C 81.382812 245.6875 123.851562 335.660156 210.023438 366.695312 Z M 207.089844 374.453125 " fill-opacity="1" fill-rule="nonzero"/><path fill="#ff914d" d="M 174.328125 375.011719 C 94.28125 325.683594 69.257812 226.828125 116.117188 146.292969 C 72.890625 226.375 99.09375 322.355469 178.566406 367.882812 Z M 174.328125 375.011719 " fill-opacity="1" fill-rule="nonzero"/><path fill="#ff914d" d="M 141.972656 369.875 C 71.703125 307.398438 64.226562 205.695312 124.359375 134.519531 C 67.882812 205.882812 77.019531 304.953125 147.382812 363.589844 Z M 141.972656 369.875 " fill-opacity="1" fill-rule="nonzero"/><path fill="#ff914d" d="M 110.996094 359.195312 C 52.644531 285.464844 62.941406 184.011719 134.519531 124.359375 C 66.511719 184.828125 58.304688 283.980469 117.414062 353.945312 Z M 110.996094 359.195312 " fill-opacity="1" fill-rule="nonzero"/><path fill="#ff914d" d="M 82.34375 343.300781 C 37.683594 260.558594 65.441406 162.433594 146.292969 116.117188 C 68.816406 163.859375 43.515625 260.078125 89.578125 339.246094 Z M 82.34375 343.300781 " fill-opacity="1" fill-rule="nonzero"/><path fill="#ff914d" d="M 56.890625 322.671875 C 27.277344 233.429688 71.648438 141.617188 159.316406 110.046875 C 74.726562 143.605469 33.101562 233.972656 64.71875 319.933594 Z M 56.890625 322.671875 " fill-opacity="1" fill-rule="nonzero"/><path fill="#ff914d" d="M 35.40625 297.9375 C 21.738281 204.910156 81.378906 122.195312 173.195312 106.324219 C 84.0625 124.6875 27.378906 206.453125 43.589844 296.601562 Z M 35.40625 297.9375 " fill-opacity="1" fill-rule="nonzero"/><path fill="#ff914d" d="M 18.539062 269.84375 C 21.234375 175.859375 94.335938 104.757812 187.511719 105.074219 C 96.542969 107.679688 26.523438 178.359375 26.832031 269.949219 Z M 18.539062 269.84375 " fill-opacity="1" fill-rule="nonzero"/><g fill="#38b6ff" fill-opacity="1"><g transform="translate(123.269528, 236.786512)"><g><path d="M 7.734375 -10.484375 L 7.734375 -9.515625 C 7.734375 -9.367188 7.710938 -9.257812 7.671875 -9.1875 C 7.628906 -9.113281 7.546875 -9.078125 7.421875 -9.078125 L 5.5625 -9.078125 C 5.445312 -9.078125 5.363281 -9.109375 5.3125 -9.171875 C 5.269531 -9.234375 5.25 -9.335938 5.25 -9.484375 L 5.25 -10.40625 C 5.25 -10.601562 5.207031 -10.789062 5.125 -10.96875 C 5.050781 -11.15625 4.9375 -11.304688 4.78125 -11.421875 C 4.632812 -11.535156 4.453125 -11.59375 4.234375 -11.59375 C 3.910156 -11.59375 3.644531 -11.472656 3.4375 -11.234375 C 3.238281 -11.003906 3.140625 -10.734375 3.140625 -10.421875 L 3.140625 -3.390625 C 3.140625 -3.179688 3.179688 -2.984375 3.265625 -2.796875 C 3.359375 -2.609375 3.484375 -2.457031 3.640625 -2.34375 C 3.804688 -2.238281 4.003906 -2.1875 4.234375 -2.1875 C 4.597656 -2.1875 4.867188 -2.304688 5.046875 -2.546875 C 5.222656 -2.796875 5.3125 -3.078125 5.3125 -3.390625 L 5.3125 -4.5625 C 5.3125 -4.71875 5.332031 -4.820312 5.375 -4.875 C 5.414062 -4.925781 5.492188 -4.953125 5.609375 -4.953125 L 7.46875 -4.953125 C 7.582031 -4.953125 7.664062 -4.925781 7.71875 -4.875 C 7.769531 -4.832031 7.796875 -4.738281 7.796875 -4.59375 L 7.796875 -3.234375 C 7.796875 -2.515625 7.632812 -1.894531 7.3125 -1.375 C 6.988281 -0.863281 6.554688 -0.46875 6.015625 -0.1875 C 5.472656 0.0820312 4.875 0.21875 4.21875 0.21875 C 3.71875 0.21875 3.242188 0.140625 2.796875 -0.015625 C 2.347656 -0.171875 1.945312 -0.394531 1.59375 -0.6875 C 1.25 -0.988281 0.976562 -1.351562 0.78125 -1.78125 C 0.59375 -2.207031 0.5 -2.691406 0.5 -3.234375 L 0.5 -10.53125 C 0.5 -11.019531 0.585938 -11.472656 0.765625 -11.890625 C 0.953125 -12.316406 1.210938 -12.6875 1.546875 -13 C 1.878906 -13.3125 2.269531 -13.550781 2.71875 -13.71875 C 3.164062 -13.894531 3.664062 -13.984375 4.21875 -13.984375 C 4.820312 -13.984375 5.34375 -13.882812 5.78125 -13.6875 C 6.226562 -13.488281 6.59375 -13.222656 6.875 -12.890625 C 7.164062 -12.554688 7.378906 -12.179688 7.515625 -11.765625 C 7.660156 -11.347656 7.734375 -10.921875 7.734375 -10.484375 Z M 7.734375 -10.484375 "/></g></g></g><g fill="#38b6ff" fill-opacity="1"><g transform="translate(131.443699, 236.786512)"><g><path d="M 5.5 -8.53125 L 5.5 -10.1875 C 5.5 -10.539062 5.394531 -10.820312 5.1875 -11.03125 C 4.976562 -11.25 4.703125 -11.359375 4.359375 -11.359375 L 3.359375 -11.359375 L 3.359375 -7.40625 L 4.296875 -7.40625 C 4.691406 -7.40625 4.988281 -7.507812 5.1875 -7.71875 C 5.394531 -7.925781 5.5 -8.195312 5.5 -8.53125 Z M 7.71875 -0.015625 L 5.890625 -0.015625 C 5.773438 -0.015625 5.664062 -0.0507812 5.5625 -0.125 C 5.46875 -0.195312 5.421875 -0.304688 5.421875 -0.453125 L 5.421875 -2.53125 C 5.421875 -3.5 5.25 -4.195312 4.90625 -4.625 C 4.5625 -5.0625 4.046875 -5.304688 3.359375 -5.359375 L 3.359375 -0.375 C 3.359375 -0.125 3.25 0 3.03125 0 L 1.046875 0 C 0.828125 0 0.71875 -0.125 0.71875 -0.375 L 0.71875 -13.390625 C 0.71875 -13.648438 0.832031 -13.78125 1.0625 -13.78125 L 4.5625 -13.78125 C 5.082031 -13.78125 5.5625 -13.6875 6 -13.5 C 6.4375 -13.3125 6.816406 -13.050781 7.140625 -12.71875 C 7.460938 -12.382812 7.710938 -12.003906 7.890625 -11.578125 C 8.078125 -11.148438 8.171875 -10.6875 8.171875 -10.1875 L 8.171875 -8.765625 C 8.171875 -8.171875 8.03125 -7.664062 7.75 -7.25 C 7.476562 -6.832031 7.140625 -6.488281 6.734375 -6.21875 C 7.191406 -5.84375 7.53125 -5.332031 7.75 -4.6875 C 7.96875 -4.039062 8.078125 -3.21875 8.078125 -2.21875 L 8.078125 -0.421875 C 8.078125 -0.335938 8.050781 -0.25 8 -0.15625 C 7.945312 -0.0625 7.851562 -0.015625 7.71875 -0.015625 Z M 7.71875 -0.015625 "/></g></g></g><g fill="#38b6ff" fill-opacity="1"><g transform="translate(140.145557, 236.786512)"><g><path d="M 3.359375 -2.40625 L 7.0625 -2.40625 C 7.132812 -2.40625 7.195312 -2.375 7.25 -2.3125 C 7.3125 -2.257812 7.34375 -2.175781 7.34375 -2.0625 L 7.34375 -0.34375 C 7.34375 -0.226562 7.3125 -0.140625 7.25 -0.078125 C 7.195312 -0.0234375 7.132812 0 7.0625 0 L 1.0625 0 C 0.832031 0 0.71875 -0.125 0.71875 -0.375 L 0.71875 -13.390625 C 0.71875 -13.648438 0.832031 -13.78125 1.0625 -13.78125 L 7.015625 -13.78125 C 7.191406 -13.78125 7.28125 -13.65625 7.28125 -13.40625 L 7.28125 -11.71875 C 7.28125 -11.476562 7.191406 -11.359375 7.015625 -11.359375 L 3.359375 -11.359375 L 3.359375 -8.171875 L 6.265625 -8.171875 C 6.359375 -8.171875 6.4375 -8.140625 6.5 -8.078125 C 6.5625 -8.023438 6.59375 -7.9375 6.59375 -7.8125 L 6.59375 -6.109375 C 6.59375 -5.992188 6.5625 -5.910156 6.5 -5.859375 C 6.4375 -5.804688 6.359375 -5.78125 6.265625 -5.78125 L 3.359375 -5.78125 Z M 3.359375 -2.40625 "/></g></g></g><g fill="#38b6ff" fill-opacity="1"><g transform="translate(147.722346, 236.786512)"><g><path d="M 3.28125 -10.390625 L 3.28125 -5.609375 L 5.40625 -5.609375 L 5.40625 -10.390625 C 5.40625 -10.703125 5.3125 -10.976562 5.125 -11.21875 C 4.9375 -11.46875 4.675781 -11.59375 4.34375 -11.59375 C 4.007812 -11.59375 3.75 -11.46875 3.5625 -11.21875 C 3.375 -10.976562 3.28125 -10.703125 3.28125 -10.390625 Z M 8.0625 -10.546875 L 8.0625 -0.390625 C 8.0625 -0.296875 8.035156 -0.207031 7.984375 -0.125 C 7.941406 -0.0390625 7.863281 0 7.75 0 L 5.71875 0 C 5.625 0 5.546875 -0.0351562 5.484375 -0.109375 C 5.429688 -0.191406 5.40625 -0.285156 5.40625 -0.390625 L 5.40625 -3.28125 L 3.28125 -3.28125 L 3.28125 -0.390625 C 3.28125 -0.285156 3.257812 -0.191406 3.21875 -0.109375 C 3.1875 -0.0351562 3.109375 0 2.984375 0 L 0.890625 0 C 0.816406 0 0.753906 -0.0351562 0.703125 -0.109375 C 0.648438 -0.191406 0.625 -0.285156 0.625 -0.390625 L 0.625 -10.546875 C 0.625 -11.023438 0.722656 -11.472656 0.921875 -11.890625 C 1.117188 -12.304688 1.390625 -12.671875 1.734375 -12.984375 C 2.078125 -13.304688 2.472656 -13.554688 2.921875 -13.734375 C 3.367188 -13.910156 3.84375 -14 4.34375 -14 C 4.84375 -14 5.316406 -13.910156 5.765625 -13.734375 C 6.210938 -13.554688 6.609375 -13.304688 6.953125 -12.984375 C 7.296875 -12.671875 7.566406 -12.304688 7.765625 -11.890625 C 7.960938 -11.472656 8.0625 -11.023438 8.0625 -10.546875 Z M 8.0625 -10.546875 "/></g></g></g><g fill="#38b6ff" fill-opacity="1"><g transform="translate(156.414248, 236.786512)"><g><path d="M 6.640625 -11.359375 L 4.78125 -11.359375 L 4.78125 -0.34375 C 4.78125 -0.226562 4.753906 -0.140625 4.703125 -0.078125 C 4.648438 -0.0234375 4.582031 0 4.5 0 L 2.421875 0 C 2.335938 0 2.265625 -0.0234375 2.203125 -0.078125 C 2.148438 -0.140625 2.125 -0.226562 2.125 -0.34375 L 2.125 -11.359375 L 0.28125 -11.359375 C 0.195312 -11.359375 0.125 -11.390625 0.0625 -11.453125 C 0.0078125 -11.515625 -0.015625 -11.601562 -0.015625 -11.71875 L -0.015625 -13.40625 C -0.015625 -13.53125 0.0078125 -13.625 0.0625 -13.6875 C 0.125 -13.75 0.195312 -13.78125 0.28125 -13.78125 L 6.640625 -13.78125 C 6.722656 -13.78125 6.789062 -13.75 6.84375 -13.6875 C 6.894531 -13.625 6.921875 -13.535156 6.921875 -13.421875 L 6.921875 -11.71875 C 6.921875 -11.601562 6.894531 -11.515625 6.84375 -11.453125 C 6.789062 -11.390625 6.722656 -11.359375 6.640625 -11.359375 Z M 6.640625 -11.359375 "/></g></g></g><g fill="#38b6ff" fill-opacity="1"><g transform="translate(163.323961, 236.786512)"><g><path d="M 3.359375 -13.390625 L 3.359375 -0.375 C 3.359375 -0.125 3.25 0 3.03125 0 L 1.046875 0 C 0.828125 0 0.71875 -0.125 0.71875 -0.375 L 0.71875 -13.390625 C 0.71875 -13.648438 0.828125 -13.78125 1.046875 -13.78125 L 3.03125 -13.78125 C 3.25 -13.78125 3.359375 -13.648438 3.359375 -13.390625 Z M 3.359375 -13.390625 "/></g></g></g><g fill="#38b6ff" fill-opacity="1"><g transform="translate(167.416024, 236.786512)"><g><path d="M 3.890625 -5.453125 L 3.984375 -4.296875 L 4.09375 -5.453125 L 5.34375 -13.453125 C 5.351562 -13.566406 5.394531 -13.648438 5.46875 -13.703125 C 5.550781 -13.753906 5.640625 -13.78125 5.734375 -13.78125 L 7.734375 -13.78125 C 7.828125 -13.78125 7.890625 -13.742188 7.921875 -13.671875 C 7.953125 -13.609375 7.953125 -13.519531 7.921875 -13.40625 L 5.15625 -0.34375 C 5.09375 -0.113281 4.96875 0 4.78125 0 L 3.203125 0 C 2.992188 0 2.863281 -0.113281 2.8125 -0.34375 L 0.046875 -13.390625 C -0.015625 -13.648438 0.046875 -13.78125 0.234375 -13.78125 L 2.234375 -13.78125 C 2.328125 -13.78125 2.410156 -13.753906 2.484375 -13.703125 C 2.566406 -13.648438 2.613281 -13.566406 2.625 -13.453125 Z M 3.890625 -5.453125 "/></g></g></g><g fill="#38b6ff" fill-opacity="1"><g transform="translate(175.391068, 236.786512)"><g><path d="M 3.359375 -2.40625 L 7.0625 -2.40625 C 7.132812 -2.40625 7.195312 -2.375 7.25 -2.3125 C 7.3125 -2.257812 7.34375 -2.175781 7.34375 -2.0625 L 7.34375 -0.34375 C 7.34375 -0.226562 7.3125 -0.140625 7.25 -0.078125 C 7.195312 -0.0234375 7.132812 0 7.0625 0 L 1.0625 0 C 0.832031 0 0.71875 -0.125 0.71875 -0.375 L 0.71875 -13.390625 C 0.71875 -13.648438 0.832031 -13.78125 1.0625 -13.78125 L 7.015625 -13.78125 C 7.191406 -13.78125 7.28125 -13.65625 7.28125 -13.40625 L 7.28125 -11.71875 C 7.28125 -11.476562 7.191406 -11.359375 7.015625 -11.359375 L 3.359375 -11.359375 L 3.359375 -8.171875 L 6.265625 -8.171875 C 6.359375 -8.171875 6.4375 -8.140625 6.5 -8.078125 C 6.5625 -8.023438 6.59375 -7.9375 6.59375 -7.8125 L 6.59375 -6.109375 C 6.59375 -5.992188 6.5625 -5.910156 6.5 -5.859375 C 6.4375 -5.804688 6.359375 -5.78125 6.265625 -5.78125 L 3.359375 -5.78125 Z M 3.359375 -2.40625 "/></g></g></g><g fill="#38b6ff" fill-opacity="1"><g transform="translate(182.967858, 236.786512)"><g/></g></g><g fill="#38b6ff" fill-opacity="1"><g transform="translate(187.587608, 236.786512)"><g><path d="M 7.734375 -10.484375 L 7.734375 -9.515625 C 7.734375 -9.367188 7.710938 -9.257812 7.671875 -9.1875 C 7.628906 -9.113281 7.546875 -9.078125 7.421875 -9.078125 L 5.5625 -9.078125 C 5.445312 -9.078125 5.363281 -9.109375 5.3125 -9.171875 C 5.269531 -9.234375 5.25 -9.335938 5.25 -9.484375 L 5.25 -10.40625 C 5.25 -10.601562 5.207031 -10.789062 5.125 -10.96875 C 5.050781 -11.15625 4.9375 -11.304688 4.78125 -11.421875 C 4.632812 -11.535156 4.453125 -11.59375 4.234375 -11.59375 C 3.910156 -11.59375 3.644531 -11.472656 3.4375 -11.234375 C 3.238281 -11.003906 3.140625 -10.734375 3.140625 -10.421875 L 3.140625 -3.390625 C 3.140625 -3.179688 3.179688 -2.984375 3.265625 -2.796875 C 3.359375 -2.609375 3.484375 -2.457031 3.640625 -2.34375 C 3.804688 -2.238281 4.003906 -2.1875 4.234375 -2.1875 C 4.597656 -2.1875 4.867188 -2.304688 5.046875 -2.546875 C 5.222656 -2.796875 5.3125 -3.078125 5.3125 -3.390625 L 5.3125 -4.5625 C 5.3125 -4.71875 5.332031 -4.820312 5.375 -4.875 C 5.414062 -4.925781 5.492188 -4.953125 5.609375 -4.953125 L 7.46875 -4.953125 C 7.582031 -4.953125 7.664062 -4.925781 7.71875 -4.875 C 7.769531 -4.832031 7.796875 -4.738281 7.796875 -4.59375 L 7.796875 -3.234375 C 7.796875 -2.515625 7.632812 -1.894531 7.3125 -1.375 C 6.988281 -0.863281 6.554688 -0.46875 6.015625 -0.1875 C 5.472656 0.0820312 4.875 0.21875 4.21875 0.21875 C 3.71875 0.21875 3.242188 0.140625 2.796875 -0.015625 C 2.347656 -0.171875 1.945312 -0.394531 1.59375 -0.6875 C 1.25 -0.988281 0.976562 -1.351562 0.78125 -1.78125 C 0.59375 -2.207031 0.5 -2.691406 0.5 -3.234375 L 0.5 -10.53125 C 0.5 -11.019531 0.585938 -11.472656 0.765625 -11.890625 C 0.953125 -12.316406 1.210938 -12.6875 1.546875 -13 C 1.878906 -13.3125 2.269531 -13.550781 2.71875 -13.71875 C 3.164062 -13.894531 3.664062 -13.984375 4.21875 -13.984375 C 4.820312 -13.984375 5.34375 -13.882812 5.78125 -13.6875 C 6.226562 -13.488281 6.59375 -13.222656 6.875 -12.890625 C 7.164062 -12.554688 7.378906 -12.179688 7.515625 -11.765625 C 7.660156 -11.347656 7.734375 -10.921875 7.734375 -10.484375 Z M 7.734375 -10.484375 "/></g></g></g><g fill="#38b6ff" fill-opacity="1"><g transform="translate(195.761779, 236.786512)"><g><path d="M 7.9375 -10.53125 L 7.9375 -3.234375 C 7.9375 -2.691406 7.835938 -2.207031 7.640625 -1.78125 C 7.441406 -1.351562 7.164062 -0.988281 6.8125 -0.6875 C 6.46875 -0.394531 6.070312 -0.171875 5.625 -0.015625 C 5.175781 0.140625 4.703125 0.21875 4.203125 0.21875 C 3.703125 0.21875 3.226562 0.140625 2.78125 -0.015625 C 2.34375 -0.179688 1.945312 -0.414062 1.59375 -0.71875 C 1.25 -1.019531 0.976562 -1.382812 0.78125 -1.8125 C 0.59375 -2.238281 0.5 -2.710938 0.5 -3.234375 L 0.5 -10.53125 C 0.5 -11.070312 0.59375 -11.554688 0.78125 -11.984375 C 0.976562 -12.410156 1.25 -12.769531 1.59375 -13.0625 C 1.945312 -13.363281 2.34375 -13.59375 2.78125 -13.75 C 3.226562 -13.90625 3.703125 -13.984375 4.203125 -13.984375 C 4.703125 -13.984375 5.175781 -13.90625 5.625 -13.75 C 6.070312 -13.59375 6.46875 -13.363281 6.8125 -13.0625 C 7.164062 -12.769531 7.441406 -12.410156 7.640625 -11.984375 C 7.835938 -11.554688 7.9375 -11.070312 7.9375 -10.53125 Z M 4.21875 -11.59375 C 3.882812 -11.59375 3.617188 -11.46875 3.421875 -11.21875 C 3.234375 -10.976562 3.140625 -10.703125 3.140625 -10.390625 L 3.140625 -3.375 C 3.140625 -3.0625 3.226562 -2.785156 3.40625 -2.546875 C 3.59375 -2.304688 3.859375 -2.1875 4.203125 -2.1875 C 4.546875 -2.1875 4.8125 -2.296875 5 -2.515625 C 5.1875 -2.734375 5.28125 -3 5.28125 -3.3125 L 5.28125 -10.390625 C 5.28125 -10.703125 5.1875 -10.976562 5 -11.21875 C 4.8125 -11.46875 4.550781 -11.59375 4.21875 -11.59375 Z M 4.21875 -11.59375 "/></g></g></g><g fill="#38b6ff" fill-opacity="1"><g transform="translate(204.194815, 236.786512)"><g><path d="M 10.203125 -0.390625 L 10.203125 -10.390625 C 10.203125 -10.703125 10.101562 -10.976562 9.90625 -11.21875 C 9.71875 -11.46875 9.457031 -11.59375 9.125 -11.59375 C 8.800781 -11.59375 8.546875 -11.472656 8.359375 -11.234375 C 8.171875 -11.003906 8.070312 -10.738281 8.0625 -10.4375 L 8.0625 -0.375 C 8.0625 -0.269531 8.039062 -0.179688 8 -0.109375 C 7.96875 -0.0351562 7.894531 0 7.78125 0 L 5.671875 0 C 5.609375 0 5.546875 -0.0351562 5.484375 -0.109375 C 5.429688 -0.191406 5.40625 -0.285156 5.40625 -0.390625 L 5.40625 -10.390625 C 5.40625 -10.703125 5.3125 -10.976562 5.125 -11.21875 C 4.9375 -11.46875 4.675781 -11.59375 4.34375 -11.59375 C 4.007812 -11.59375 3.75 -11.46875 3.5625 -11.21875 C 3.375 -10.976562 3.28125 -10.703125 3.28125 -10.390625 L 3.28125 -0.390625 C 3.28125 -0.285156 3.257812 -0.191406 3.21875 -0.109375 C 3.1875 -0.0351562 3.109375 0 2.984375 0 L 0.890625 0 C 0.816406 0 0.753906 -0.0351562 0.703125 -0.109375 C 0.648438 -0.191406 0.625 -0.285156 0.625 -0.390625 L 0.625 -10.546875 C 0.625 -11.023438 0.722656 -11.472656 0.921875 -11.890625 C 1.117188 -12.304688 1.390625 -12.671875 1.734375 -12.984375 C 2.078125 -13.304688 2.472656 -13.554688 2.921875 -13.734375 C 3.367188 -13.910156 3.84375 -14 4.34375 -14 C 4.789062 -14 5.21875 -13.925781 5.625 -13.78125 C 6.039062 -13.632812 6.410156 -13.429688 6.734375 -13.171875 C 7.054688 -13.429688 7.421875 -13.632812 7.828125 -13.78125 C 8.242188 -13.925781 8.675781 -14 9.125 -14 C 9.613281 -14 10.082031 -13.910156 10.53125 -13.734375 C 10.976562 -13.554688 11.375 -13.304688 11.71875 -12.984375 C 12.070312 -12.671875 12.347656 -12.304688 12.546875 -11.890625 C 12.742188 -11.472656 12.84375 -11.023438 12.84375 -10.546875 L 12.84375 -0.390625 C 12.84375 -0.296875 12.816406 -0.207031 12.765625 -0.125 C 12.722656 -0.0390625 12.644531 0 12.53125 0 L 10.515625 0 C 10.410156 0 10.332031 -0.0351562 10.28125 -0.109375 C 10.226562 -0.191406 10.203125 -0.285156 10.203125 -0.390625 Z M 10.203125 -0.390625 "/></g></g></g><g fill="#38b6ff" fill-opacity="1"><g transform="translate(217.665769, 236.786512)"><g><path d="M 5.5 -7 L 5.5 -10.15625 C 5.5 -10.507812 5.394531 -10.796875 5.1875 -11.015625 C 4.976562 -11.242188 4.703125 -11.359375 4.359375 -11.359375 L 3.359375 -11.359375 L 3.359375 -5.8125 L 4.375 -5.8125 C 4.71875 -5.8125 4.988281 -5.921875 5.1875 -6.140625 C 5.394531 -6.367188 5.5 -6.65625 5.5 -7 Z M 0.71875 -0.375 L 0.71875 -13.390625 C 0.71875 -13.648438 0.832031 -13.78125 1.0625 -13.78125 L 4.5625 -13.78125 C 5.082031 -13.78125 5.5625 -13.6875 6 -13.5 C 6.4375 -13.320312 6.816406 -13.066406 7.140625 -12.734375 C 7.460938 -12.410156 7.710938 -12.03125 7.890625 -11.59375 C 8.078125 -11.164062 8.171875 -10.703125 8.171875 -10.203125 L 8.171875 -7.015625 C 8.171875 -6.515625 8.078125 -6.046875 7.890625 -5.609375 C 7.710938 -5.171875 7.460938 -4.785156 7.140625 -4.453125 C 6.816406 -4.128906 6.4375 -3.875 6 -3.6875 C 5.5625 -3.507812 5.082031 -3.421875 4.5625 -3.421875 L 3.359375 -3.421875 L 3.359375 -0.375 C 3.359375 -0.125 3.25 0 3.03125 0 L 1.0625 0 C 0.832031 0 0.71875 -0.125 0.71875 -0.375 Z M 0.71875 -0.375 "/></g></g></g><g fill="#38b6ff" fill-opacity="1"><g transform="translate(226.05898, 236.786512)"><g><path d="M 3.28125 -10.390625 L 3.28125 -5.609375 L 5.40625 -5.609375 L 5.40625 -10.390625 C 5.40625 -10.703125 5.3125 -10.976562 5.125 -11.21875 C 4.9375 -11.46875 4.675781 -11.59375 4.34375 -11.59375 C 4.007812 -11.59375 3.75 -11.46875 3.5625 -11.21875 C 3.375 -10.976562 3.28125 -10.703125 3.28125 -10.390625 Z M 8.0625 -10.546875 L 8.0625 -0.390625 C 8.0625 -0.296875 8.035156 -0.207031 7.984375 -0.125 C 7.941406 -0.0390625 7.863281 0 7.75 0 L 5.71875 0 C 5.625 0 5.546875 -0.0351562 5.484375 -0.109375 C 5.429688 -0.191406 5.40625 -0.285156 5.40625 -0.390625 L 5.40625 -3.28125 L 3.28125 -3.28125 L 3.28125 -0.390625 C 3.28125 -0.285156 3.257812 -0.191406 3.21875 -0.109375 C 3.1875 -0.0351562 3.109375 0 2.984375 0 L 0.890625 0 C 0.816406 0 0.753906 -0.0351562 0.703125 -0.109375 C 0.648438 -0.191406 0.625 -0.285156 0.625 -0.390625 L 0.625 -10.546875 C 0.625 -11.023438 0.722656 -11.472656 0.921875 -11.890625 C 1.117188 -12.304688 1.390625 -12.671875 1.734375 -12.984375 C 2.078125 -13.304688 2.472656 -13.554688 2.921875 -13.734375 C 3.367188 -13.910156 3.84375 -14 4.34375 -14 C 4.84375 -14 5.316406 -13.910156 5.765625 -13.734375 C 6.210938 -13.554688 6.609375 -13.304688 6.953125 -12.984375 C 7.296875 -12.671875 7.566406 -12.304688 7.765625 -11.890625 C 7.960938 -11.472656 8.0625 -11.023438 8.0625 -10.546875 Z M 8.0625 -10.546875 "/></g></g></g><g fill="#38b6ff" fill-opacity="1"><g transform="translate(234.750882, 236.786512)"><g><path d="M 7.75 0 L 5.71875 0 C 5.625 0 5.546875 -0.0351562 5.484375 -0.109375 C 5.429688 -0.191406 5.40625 -0.285156 5.40625 -0.390625 L 5.40625 -10.390625 C 5.40625 -10.703125 5.3125 -10.976562 5.125 -11.21875 C 4.9375 -11.46875 4.675781 -11.59375 4.34375 -11.59375 C 4.007812 -11.59375 3.75 -11.46875 3.5625 -11.21875 C 3.375 -10.976562 3.28125 -10.703125 3.28125 -10.390625 L 3.28125 -0.390625 C 3.28125 -0.285156 3.257812 -0.191406 3.21875 -0.109375 C 3.175781 -0.0351562 3.097656 0 2.984375 0 L 0.890625 0 C 0.816406 0 0.753906 -0.0351562 0.703125 -0.109375 C 0.648438 -0.191406 0.625 -0.285156 0.625 -0.390625 L 0.625 -10.546875 C 0.625 -11.023438 0.722656 -11.472656 0.921875 -11.890625 C 1.117188 -12.304688 1.390625 -12.671875 1.734375 -12.984375 C 2.078125 -13.304688 2.472656 -13.554688 2.921875 -13.734375 C 3.367188 -13.910156 3.84375 -14 4.34375 -14 C 4.84375 -14 5.316406 -13.910156 5.765625 -13.734375 C 6.210938 -13.554688 6.609375 -13.304688 6.953125 -12.984375 C 7.296875 -12.671875 7.566406 -12.304688 7.765625 -11.890625 C 7.960938 -11.472656 8.0625 -11.023438 8.0625 -10.546875 L 8.0625 -0.390625 C 8.0625 -0.296875 8.035156 -0.207031 7.984375 -0.125 C 7.941406 -0.0390625 7.863281 0 7.75 0 Z M 7.75 0 "/></g></g></g><g fill="#38b6ff" fill-opacity="1"><g transform="translate(243.442783, 236.786512)"><g><path d="M 5.453125 -5.53125 L 5.453125 -0.390625 C 5.453125 -0.128906 5.359375 0 5.171875 0 L 3.109375 0 C 2.910156 0 2.8125 -0.128906 2.8125 -0.390625 L 2.8125 -5.546875 C 2.351562 -5.703125 1.941406 -5.929688 1.578125 -6.234375 C 1.210938 -6.535156 0.925781 -6.898438 0.71875 -7.328125 C 0.519531 -7.765625 0.421875 -8.253906 0.421875 -8.796875 L 0.421875 -13.546875 C 0.421875 -13.617188 0.4375 -13.675781 0.46875 -13.71875 C 0.507812 -13.757812 0.566406 -13.78125 0.640625 -13.78125 L 2.828125 -13.78125 C 2.910156 -13.78125 2.972656 -13.757812 3.015625 -13.71875 C 3.054688 -13.675781 3.078125 -13.628906 3.078125 -13.578125 L 3.078125 -8.9375 C 3.078125 -8.625 3.164062 -8.34375 3.34375 -8.09375 C 3.519531 -7.851562 3.78125 -7.734375 4.125 -7.734375 C 4.476562 -7.734375 4.742188 -7.84375 4.921875 -8.0625 C 5.109375 -8.289062 5.203125 -8.5625 5.203125 -8.875 L 5.203125 -13.546875 C 5.203125 -13.617188 5.21875 -13.675781 5.25 -13.71875 C 5.289062 -13.757812 5.347656 -13.78125 5.421875 -13.78125 L 7.640625 -13.78125 C 7.785156 -13.78125 7.859375 -13.707031 7.859375 -13.5625 L 7.859375 -8.796875 C 7.859375 -8.242188 7.753906 -7.75 7.546875 -7.3125 C 7.335938 -6.875 7.050781 -6.503906 6.6875 -6.203125 C 6.320312 -5.910156 5.910156 -5.6875 5.453125 -5.53125 Z M 5.453125 -5.53125 "/></g></g></g><g fill="#ff914d" fill-opacity="1"><g transform="translate(59.343751, 195.024458)"><g><path d="M 16.25 -13.4375 L 36.21875 -13.4375 C 37.082031 -13.4375 37.515625 -12.878906 37.515625 -11.765625 L 37.515625 -1.734375 C 37.515625 -0.578125 37.082031 0 36.21875 0 L 2.75 0 C 1.8125 0 1.34375 -0.578125 1.34375 -1.734375 L 1.34375 -9.234375 C 1.382812 -9.554688 1.441406 -9.832031 1.515625 -10.0625 C 1.585938 -10.300781 1.675781 -10.523438 1.78125 -10.734375 L 20.453125 -60.34375 L 21.265625 -62.015625 L 3.515625 -62.015625 C 2.609375 -62.015625 2.15625 -62.609375 2.15625 -63.796875 L 2.15625 -72.90625 C 2.15625 -74.09375 2.609375 -74.6875 3.515625 -74.6875 L 35.1875 -74.6875 C 35.757812 -74.6875 36.15625 -74.535156 36.375 -74.234375 C 36.59375 -73.929688 36.703125 -73.472656 36.703125 -72.859375 L 36.703125 -65.734375 C 36.703125 -65.191406 36.628906 -64.78125 36.484375 -64.5 L 17.265625 -15.328125 Z M 16.25 -13.4375 "/></g></g></g><g fill="#ff914d" fill-opacity="1"><g transform="translate(98.310331, 195.024458)"><g><path d="M 43.015625 -57.09375 L 43.015625 -17.546875 C 43.015625 -14.628906 42.472656 -12.007812 41.390625 -9.6875 C 40.316406 -7.363281 38.84375 -5.390625 36.96875 -3.765625 C 35.09375 -2.148438 32.929688 -0.921875 30.484375 -0.078125 C 28.046875 0.765625 25.476562 1.1875 22.78125 1.1875 C 20.082031 1.1875 17.523438 0.75 15.109375 -0.125 C 12.703125 -1.007812 10.5625 -2.257812 8.6875 -3.875 C 6.8125 -5.5 5.34375 -7.472656 4.28125 -9.796875 C 3.226562 -12.117188 2.703125 -14.703125 2.703125 -17.546875 L 2.703125 -57.09375 C 2.703125 -60.007812 3.226562 -62.628906 4.28125 -64.953125 C 5.34375 -67.273438 6.8125 -69.242188 8.6875 -70.859375 C 10.5625 -72.484375 12.703125 -73.71875 15.109375 -74.5625 C 17.523438 -75.40625 20.082031 -75.828125 22.78125 -75.828125 C 25.476562 -75.828125 28.046875 -75.40625 30.484375 -74.5625 C 32.929688 -73.71875 35.09375 -72.484375 36.96875 -70.859375 C 38.84375 -69.242188 40.316406 -67.285156 41.390625 -64.984375 C 42.472656 -62.679688 43.015625 -60.050781 43.015625 -57.09375 Z M 22.890625 -62.875 C 21.046875 -62.875 19.609375 -62.207031 18.578125 -60.875 C 17.554688 -59.539062 17.046875 -58.015625 17.046875 -56.296875 L 17.046875 -18.296875 C 17.046875 -16.609375 17.539062 -15.101562 18.53125 -13.78125 C 19.519531 -12.46875 20.9375 -11.8125 22.78125 -11.8125 C 24.644531 -11.8125 26.085938 -12.414062 27.109375 -13.625 C 28.140625 -14.832031 28.65625 -16.28125 28.65625 -17.96875 L 28.65625 -56.296875 C 28.65625 -58.015625 28.140625 -59.539062 27.109375 -60.875 C 26.085938 -62.207031 24.679688 -62.875 22.890625 -62.875 Z M 22.890625 -62.875 "/></g></g></g><g fill="#ff914d" fill-opacity="1"><g transform="translate(144.023203, 195.024458)"><g><path d="M 41.984375 0 L 31.03125 0 C 30.488281 0 30.066406 -0.210938 29.765625 -0.640625 C 29.460938 -1.078125 29.3125 -1.582031 29.3125 -2.15625 L 29.3125 -56.34375 C 29.3125 -58.03125 28.804688 -59.53125 27.796875 -60.84375 C 26.785156 -62.164062 25.378906 -62.828125 23.578125 -62.828125 C 21.742188 -62.828125 20.320312 -62.164062 19.3125 -60.84375 C 18.3125 -59.53125 17.8125 -58.03125 17.8125 -56.34375 L 17.8125 -2.109375 C 17.8125 -1.523438 17.691406 -1.023438 17.453125 -0.609375 C 17.222656 -0.203125 16.800781 0 16.1875 0 L 4.796875 0 C 4.398438 0 4.066406 -0.203125 3.796875 -0.609375 C 3.535156 -1.023438 3.40625 -1.523438 3.40625 -2.109375 L 3.40625 -57.15625 C 3.40625 -59.75 3.941406 -62.175781 5.015625 -64.4375 C 6.097656 -66.707031 7.566406 -68.695312 9.421875 -70.40625 C 11.273438 -72.113281 13.414062 -73.453125 15.84375 -74.421875 C 18.269531 -75.390625 20.832031 -75.875 23.53125 -75.875 C 26.226562 -75.875 28.789062 -75.390625 31.21875 -74.421875 C 33.644531 -73.453125 35.796875 -72.113281 37.671875 -70.40625 C 39.546875 -68.695312 41.019531 -66.707031 42.09375 -64.4375 C 43.175781 -62.175781 43.71875 -59.75 43.71875 -57.15625 L 43.71875 -2.15625 C 43.71875 -1.613281 43.582031 -1.117188 43.3125 -0.671875 C 43.039062 -0.222656 42.597656 0 41.984375 0 Z M 41.984375 0 "/></g></g></g><g fill="#38b6ff" fill-opacity="1"><g transform="translate(193.634641, 195.071478)"><g><path d="M 36.15625 -61.84375 L 26.0625 -61.84375 L 26.0625 -1.890625 C 26.0625 -1.273438 25.910156 -0.804688 25.609375 -0.484375 C 25.304688 -0.160156 24.9375 0 24.5 0 L 13.171875 0 C 12.703125 0 12.320312 -0.160156 12.03125 -0.484375 C 11.738281 -0.804688 11.59375 -1.273438 11.59375 -1.890625 L 11.59375 -61.84375 L 1.515625 -61.84375 C 1.046875 -61.84375 0.664062 -62.003906 0.375 -62.328125 C 0.09375 -62.648438 -0.046875 -63.140625 -0.046875 -63.796875 L -0.046875 -73 C -0.046875 -73.65625 0.09375 -74.15625 0.375 -74.5 C 0.664062 -74.84375 1.046875 -75.015625 1.515625 -75.015625 L 36.15625 -75.015625 C 36.625 -75.015625 37 -74.847656 37.28125 -74.515625 C 37.570312 -74.191406 37.71875 -73.707031 37.71875 -73.0625 L 37.71875 -63.796875 C 37.71875 -63.140625 37.570312 -62.648438 37.28125 -62.328125 C 37 -62.003906 36.625 -61.84375 36.15625 -61.84375 Z M 36.15625 -61.84375 "/></g></g><g transform="translate(231.248897, 195.071478)"><g><path d="M 17.890625 -56.578125 L 17.890625 -30.515625 L 29.4375 -30.515625 L 29.4375 -56.578125 C 29.4375 -58.273438 28.925781 -59.785156 27.90625 -61.109375 C 26.894531 -62.429688 25.488281 -63.09375 23.6875 -63.09375 C 21.84375 -63.09375 20.414062 -62.429688 19.40625 -61.109375 C 18.394531 -59.785156 17.890625 -58.273438 17.890625 -56.578125 Z M 43.90625 -57.390625 L 43.90625 -2.171875 C 43.90625 -1.628906 43.769531 -1.128906 43.5 -0.671875 C 43.226562 -0.222656 42.785156 0 42.171875 0 L 31.171875 0 C 30.628906 0 30.203125 -0.210938 29.890625 -0.640625 C 29.585938 -1.078125 29.4375 -1.585938 29.4375 -2.171875 L 29.4375 -17.890625 L 17.890625 -17.890625 L 17.890625 -2.109375 C 17.890625 -1.535156 17.78125 -1.039062 17.5625 -0.625 C 17.34375 -0.207031 16.910156 0 16.265625 0 L 4.828125 0 C 4.429688 0 4.097656 -0.207031 3.828125 -0.625 C 3.554688 -1.039062 3.421875 -1.535156 3.421875 -2.109375 L 3.421875 -57.390625 C 3.421875 -59.992188 3.960938 -62.429688 5.046875 -64.703125 C 6.128906 -66.984375 7.597656 -68.984375 9.453125 -70.703125 C 11.316406 -72.421875 13.46875 -73.765625 15.90625 -74.734375 C 18.34375 -75.710938 20.914062 -76.203125 23.625 -76.203125 C 26.34375 -76.203125 28.921875 -75.710938 31.359375 -74.734375 C 33.796875 -73.765625 35.953125 -72.421875 37.828125 -70.703125 C 39.710938 -68.984375 41.195312 -66.984375 42.28125 -64.703125 C 43.363281 -62.429688 43.90625 -59.992188 43.90625 -57.390625 Z M 43.90625 -57.390625 "/></g></g><g transform="translate(278.564812, 195.071478)"><g><path d="M 35.234375 -37.671875 C 38.335938 -35.285156 40.753906 -32.265625 42.484375 -28.609375 C 44.222656 -24.960938 45.09375 -20.738281 45.09375 -15.9375 L 45.09375 -2.28125 C 45.09375 -1.8125 44.945312 -1.3125 44.65625 -0.78125 C 44.375 -0.257812 43.867188 0 43.140625 0 L 33.0625 0 C 32.445312 0 31.882812 -0.207031 31.375 -0.625 C 30.875 -1.039062 30.625 -1.644531 30.625 -2.4375 L 30.625 -14.25 C 30.625 -17.394531 30.257812 -20.160156 29.53125 -22.546875 C 28.8125 -24.929688 27.554688 -26.816406 25.765625 -28.203125 C 23.984375 -29.597656 21.5 -30.367188 18.3125 -30.515625 L 18.3125 -2.0625 C 18.3125 -0.6875 17.734375 0 16.578125 0 L 5.75 0 C 4.519531 0 3.90625 -0.6875 3.90625 -2.0625 L 3.90625 -72.890625 C 3.90625 -74.304688 4.519531 -75.015625 5.75 -75.015625 L 16.53125 -75.015625 C 17.71875 -75.015625 18.3125 -74.304688 18.3125 -72.890625 L 18.3125 -44.125 C 21.3125 -44.375 23.640625 -45.203125 25.296875 -46.609375 C 26.960938 -48.015625 28.140625 -49.898438 28.828125 -52.265625 C 29.515625 -54.640625 29.859375 -57.34375 29.859375 -60.375 L 29.859375 -72.515625 C 29.859375 -73.347656 30.117188 -73.972656 30.640625 -74.390625 C 31.171875 -74.804688 31.742188 -75.015625 32.359375 -75.015625 L 42.390625 -75.015625 C 43.109375 -75.015625 43.609375 -74.75 43.890625 -74.21875 C 44.179688 -73.695312 44.328125 -73.1875 44.328125 -72.6875 L 44.328125 -58.75 C 44.328125 -54.164062 43.53125 -50.101562 41.9375 -46.5625 C 40.351562 -43.019531 38.117188 -40.054688 35.234375 -37.671875 Z M 35.234375 -37.671875 "/></g></g></g><g fill="#ff914d" fill-opacity="1"><g transform="translate(171.40076, 214.306553)"><g/></g></g><g fill="#ff914d" fill-opacity="1"><g transform="translate(174.377322, 214.306553)"><g><path d="M 2.109375 -6.671875 L 2.109375 -3.59375 L 3.46875 -3.59375 L 3.46875 -6.671875 C 3.46875 -6.867188 3.40625 -7.046875 3.28125 -7.203125 C 3.164062 -7.359375 3.003906 -7.4375 2.796875 -7.4375 C 2.578125 -7.4375 2.40625 -7.359375 2.28125 -7.203125 C 2.164062 -7.046875 2.109375 -6.867188 2.109375 -6.671875 Z M 5.171875 -6.765625 L 5.171875 -0.25 C 5.171875 -0.1875 5.15625 -0.128906 5.125 -0.078125 C 5.09375 -0.0234375 5.039062 0 4.96875 0 L 3.671875 0 C 3.609375 0 3.554688 -0.0234375 3.515625 -0.078125 C 3.484375 -0.128906 3.46875 -0.1875 3.46875 -0.25 L 3.46875 -2.109375 L 2.109375 -2.109375 L 2.109375 -0.25 C 2.109375 -0.175781 2.09375 -0.113281 2.0625 -0.0625 C 2.039062 -0.0195312 1.992188 0 1.921875 0 L 0.5625 0 C 0.519531 0 0.484375 -0.0195312 0.453125 -0.0625 C 0.421875 -0.113281 0.40625 -0.175781 0.40625 -0.25 L 0.40625 -6.765625 C 0.40625 -7.078125 0.46875 -7.363281 0.59375 -7.625 C 0.71875 -7.894531 0.890625 -8.128906 1.109375 -8.328125 C 1.328125 -8.535156 1.582031 -8.695312 1.875 -8.8125 C 2.164062 -8.925781 2.46875 -8.984375 2.78125 -8.984375 C 3.101562 -8.984375 3.40625 -8.925781 3.6875 -8.8125 C 3.976562 -8.695312 4.234375 -8.535156 4.453125 -8.328125 C 4.679688 -8.128906 4.859375 -7.894531 4.984375 -7.625 C 5.109375 -7.363281 5.171875 -7.078125 5.171875 -6.765625 Z M 5.171875 -6.765625 "/></g></g></g><g fill="#ff914d" fill-opacity="1"><g transform="translate(179.957129, 214.306553)"><g><path d="M 2.15625 -8.59375 L 2.15625 -0.25 C 2.15625 -0.0820312 2.085938 0 1.953125 0 L 0.671875 0 C 0.523438 0 0.453125 -0.0820312 0.453125 -0.25 L 0.453125 -8.59375 C 0.453125 -8.757812 0.523438 -8.84375 0.671875 -8.84375 L 1.953125 -8.84375 C 2.085938 -8.84375 2.15625 -8.757812 2.15625 -8.59375 Z M 2.15625 -8.59375 "/></g></g></g><g fill="#ff914d" fill-opacity="1"><g transform="translate(182.584051, 214.306553)"><g/></g></g><g fill="#ff914d" fill-opacity="1"><g transform="translate(185.549719, 214.306553)"><g><path d="M 4.515625 -8.625 L 4.515625 -7.53125 C 4.515625 -7.375 4.457031 -7.296875 4.34375 -7.296875 L 2.15625 -7.296875 L 2.15625 -5.109375 L 3.84375 -5.109375 C 3.894531 -5.109375 3.9375 -5.09375 3.96875 -5.0625 C 4.007812 -5.03125 4.03125 -4.972656 4.03125 -4.890625 L 4.03125 -3.796875 C 4.03125 -3.648438 3.96875 -3.578125 3.84375 -3.578125 L 2.15625 -3.578125 L 2.15625 -0.25 C 2.15625 -0.0820312 2.085938 0 1.953125 0 L 0.671875 0 C 0.523438 0 0.453125 -0.0820312 0.453125 -0.25 L 0.453125 -8.59375 C 0.453125 -8.757812 0.523438 -8.84375 0.671875 -8.84375 L 4.34375 -8.84375 C 4.457031 -8.84375 4.515625 -8.769531 4.515625 -8.625 Z M 4.515625 -8.625 "/></g></g></g><g fill="#ff914d" fill-opacity="1"><g transform="translate(190.151617, 214.306553)"><g><path d="M 2.15625 -8.59375 L 2.15625 -0.25 C 2.15625 -0.0820312 2.085938 0 1.953125 0 L 0.671875 0 C 0.523438 0 0.453125 -0.0820312 0.453125 -0.25 L 0.453125 -8.59375 C 0.453125 -8.757812 0.523438 -8.84375 0.671875 -8.84375 L 1.953125 -8.84375 C 2.085938 -8.84375 2.15625 -8.757812 2.15625 -8.59375 Z M 2.15625 -8.59375 "/></g></g></g><g fill="#ff914d" fill-opacity="1"><g transform="translate(192.778539, 214.306553)"><g><path d="M 3.53125 -5.484375 L 3.53125 -6.546875 C 3.53125 -6.773438 3.460938 -6.957031 3.328125 -7.09375 C 3.191406 -7.226562 3.015625 -7.296875 2.796875 -7.296875 L 2.15625 -7.296875 L 2.15625 -4.75 L 2.75 -4.75 C 3.007812 -4.75 3.203125 -4.816406 3.328125 -4.953125 C 3.460938 -5.085938 3.53125 -5.265625 3.53125 -5.484375 Z M 4.953125 0 L 3.78125 0 C 3.707031 0 3.640625 -0.0234375 3.578125 -0.078125 C 3.515625 -0.128906 3.484375 -0.203125 3.484375 -0.296875 L 3.484375 -1.625 C 3.484375 -2.25 3.367188 -2.695312 3.140625 -2.96875 C 2.921875 -3.25 2.59375 -3.40625 2.15625 -3.4375 L 2.15625 -0.234375 C 2.15625 -0.078125 2.085938 0 1.953125 0 L 0.671875 0 C 0.523438 0 0.453125 -0.078125 0.453125 -0.234375 L 0.453125 -8.59375 C 0.453125 -8.757812 0.523438 -8.84375 0.671875 -8.84375 L 2.9375 -8.84375 C 3.257812 -8.84375 3.5625 -8.78125 3.84375 -8.65625 C 4.125 -8.539062 4.367188 -8.375 4.578125 -8.15625 C 4.785156 -7.945312 4.945312 -7.703125 5.0625 -7.421875 C 5.1875 -7.148438 5.25 -6.859375 5.25 -6.546875 L 5.25 -5.625 C 5.25 -5.25 5.160156 -4.925781 4.984375 -4.65625 C 4.804688 -4.394531 4.585938 -4.175781 4.328125 -4 C 4.617188 -3.75 4.832031 -3.414062 4.96875 -3 C 5.113281 -2.59375 5.1875 -2.066406 5.1875 -1.421875 L 5.1875 -0.28125 C 5.1875 -0.21875 5.164062 -0.15625 5.125 -0.09375 C 5.09375 -0.03125 5.035156 0 4.953125 0 Z M 4.953125 0 "/></g></g></g><g fill="#ff914d" fill-opacity="1"><g transform="translate(198.364732, 214.306553)"><g><path d="M 3.21875 -6.28125 L 3.21875 -6.640625 C 3.21875 -6.859375 3.160156 -7.046875 3.046875 -7.203125 C 2.929688 -7.367188 2.757812 -7.453125 2.53125 -7.453125 C 2.414062 -7.453125 2.304688 -7.421875 2.203125 -7.359375 C 2.097656 -7.304688 2.007812 -7.222656 1.9375 -7.109375 C 1.863281 -6.992188 1.828125 -6.835938 1.828125 -6.640625 C 1.828125 -6.441406 1.867188 -6.269531 1.953125 -6.125 C 2.035156 -5.976562 2.144531 -5.84375 2.28125 -5.71875 C 2.425781 -5.601562 2.59375 -5.46875 2.78125 -5.3125 C 3.082031 -5.082031 3.363281 -4.859375 3.625 -4.640625 C 3.882812 -4.429688 4.109375 -4.203125 4.296875 -3.953125 C 4.492188 -3.710938 4.644531 -3.441406 4.75 -3.140625 C 4.863281 -2.835938 4.921875 -2.484375 4.921875 -2.078125 C 4.921875 -1.773438 4.863281 -1.488281 4.75 -1.21875 C 4.644531 -0.957031 4.488281 -0.722656 4.28125 -0.515625 C 4.070312 -0.316406 3.820312 -0.15625 3.53125 -0.03125 C 3.238281 0.0820312 2.914062 0.140625 2.5625 0.140625 C 2.1875 0.140625 1.851562 0.078125 1.5625 -0.046875 C 1.269531 -0.171875 1.023438 -0.335938 0.828125 -0.546875 C 0.640625 -0.765625 0.492188 -1.007812 0.390625 -1.28125 C 0.296875 -1.5625 0.25 -1.851562 0.25 -2.15625 L 0.25 -2.5 C 0.25 -2.601562 0.265625 -2.675781 0.296875 -2.71875 C 0.328125 -2.769531 0.382812 -2.796875 0.46875 -2.796875 L 1.640625 -2.796875 C 1.722656 -2.796875 1.78125 -2.773438 1.8125 -2.734375 C 1.84375 -2.703125 1.859375 -2.632812 1.859375 -2.53125 L 1.859375 -2.25 C 1.859375 -2.039062 1.894531 -1.875 1.96875 -1.75 C 2.039062 -1.625 2.132812 -1.535156 2.25 -1.484375 C 2.363281 -1.429688 2.472656 -1.40625 2.578125 -1.40625 C 2.785156 -1.40625 2.957031 -1.472656 3.09375 -1.609375 C 3.238281 -1.742188 3.3125 -1.929688 3.3125 -2.171875 C 3.3125 -2.378906 3.269531 -2.554688 3.1875 -2.703125 C 3.113281 -2.859375 2.992188 -3.007812 2.828125 -3.15625 C 2.671875 -3.3125 2.457031 -3.5 2.1875 -3.71875 C 1.851562 -3.988281 1.5625 -4.226562 1.3125 -4.4375 C 1.070312 -4.644531 0.875 -4.851562 0.71875 -5.0625 C 0.5625 -5.269531 0.441406 -5.5 0.359375 -5.75 C 0.285156 -6.007812 0.25 -6.320312 0.25 -6.6875 C 0.25 -7.019531 0.296875 -7.3125 0.390625 -7.5625 C 0.492188 -7.820312 0.628906 -8.039062 0.796875 -8.21875 C 0.960938 -8.394531 1.144531 -8.539062 1.34375 -8.65625 C 1.539062 -8.769531 1.738281 -8.851562 1.9375 -8.90625 C 2.144531 -8.957031 2.34375 -8.984375 2.53125 -8.984375 C 2.96875 -8.984375 3.359375 -8.882812 3.703125 -8.6875 C 4.046875 -8.5 4.3125 -8.226562 4.5 -7.875 C 4.695312 -7.53125 4.796875 -7.125 4.796875 -6.65625 L 4.796875 -6.28125 C 4.796875 -6.195312 4.78125 -6.132812 4.75 -6.09375 C 4.71875 -6.0625 4.648438 -6.046875 4.546875 -6.046875 L 3.40625 -6.046875 C 3.320312 -6.046875 3.269531 -6.0625 3.25 -6.09375 C 3.226562 -6.132812 3.21875 -6.195312 3.21875 -6.28125 Z M 3.21875 -6.28125 "/></g></g></g><g fill="#ff914d" fill-opacity="1"><g transform="translate(203.477952, 214.306553)"><g><path d="M 4.265625 -7.296875 L 3.078125 -7.296875 L 3.078125 -0.21875 C 3.078125 -0.144531 3.054688 -0.0859375 3.015625 -0.046875 C 2.984375 -0.015625 2.941406 0 2.890625 0 L 1.546875 0 C 1.492188 0 1.453125 -0.015625 1.421875 -0.046875 C 1.390625 -0.0859375 1.375 -0.144531 1.375 -0.21875 L 1.375 -7.296875 L 0.171875 -7.296875 C 0.117188 -7.296875 0.078125 -7.3125 0.046875 -7.34375 C 0.015625 -7.382812 0 -7.445312 0 -7.53125 L 0 -8.609375 C 0 -8.691406 0.015625 -8.75 0.046875 -8.78125 C 0.078125 -8.820312 0.117188 -8.84375 0.171875 -8.84375 L 4.265625 -8.84375 C 4.316406 -8.84375 4.359375 -8.820312 4.390625 -8.78125 C 4.429688 -8.75 4.453125 -8.695312 4.453125 -8.625 L 4.453125 -7.53125 C 4.453125 -7.445312 4.429688 -7.382812 4.390625 -7.34375 C 4.359375 -7.3125 4.316406 -7.296875 4.265625 -7.296875 Z M 4.265625 -7.296875 "/></g></g></g><g fill="#ff914d" fill-opacity="1"><g transform="translate(207.916382, 214.306553)"><g/></g></g></svg>